<svg xmlns="http://www.w3.org/2000/svg" viewBox="0 0 1122.8 403.3"><defs><style>.cls-1{fill:#a00070;}.cls-2{fill:#3d0046;}</style></defs><g id="Capa_2" data-name="Capa 2"><g id="Ñëîé_1" data-name="Ñëîé 1"><path class="cls-1" d="M1102.2,274.8c-46.2,0,0,55.7,0,55.7S1148.5,274.8,1102.2,274.8Zm0,35.2a15.6,15.6,0,1,1,15.7-15.6A15.6,15.6,0,0,1,1102.2,310Z"/><path class="cls-1" d="M1102.2,280.9a13.5,13.5,0,1,0,13.5,13.5A13.4,13.4,0,0,0,1102.2,280.9Zm0,24.8a11.3,11.3,0,1,1,11.4-11.3A11.4,11.4,0,0,1,1102.2,305.7Z"/><path class="cls-2" d="M1107.5,341.4a5.3,5.3,0,0,1-10.5,0,5.3,5.3,0,1,1,10.5,0Z"/><path class="cls-2" d="M11.2,334.2a2.9,2.9,0,0,1-1.7-.6l-8.2-5.7a2.9,2.9,0,0,1-.7-4.2,3,3,0,0,1,4.1-.7l8.2,5.7a2.9,2.9,0,0,1,.8,4.1A3,3,0,0,1,11.2,334.2Z"/><path class="cls-2" d="M238.3,403.3h-6.1q-7-.1-14.1-.6a2.9,2.9,0,0,1-2.8-3.1,3.1,3.1,0,0,1,3.1-2.9c4.7.3,9.3.5,14,.6h5.9a2.9,2.9,0,0,1,3,3A3,3,0,0,1,238.3,403.3Zm20.1-.6a3,3,0,0,1-3-2.8,3,3,0,0,1,2.8-3.2c6.8-.4,13.5-1,19.7-1.9a3,3,0,0,1,3.4,2.5,3,3,0,0,1-2.5,3.4c-6.4.9-13.2,1.6-20.2,2Zm187.4-1.6h-.1c-6.7,0-13.5-.2-20.2-.6a3,3,0,0,1-2.8-3.2,3.1,3.1,0,0,1,3.2-2.8c6.6.4,13.2.6,19.9.6a3.1,3.1,0,0,1,3,3A3,3,0,0,1,445.8,401.1ZM198.3,401H198c-6.7-.7-13.4-1.5-20.1-2.5a3.1,3.1,0,0,1-2.5-3.5,3.1,3.1,0,0,1,3.4-2.5c6.6,1,13.2,1.9,19.8,2.6a3,3,0,0,1-.3,5.9Zm267.5-.4a3,3,0,0,1-3-2.8,3,3,0,0,1,2.8-3.2c6.6-.4,13.3-.9,19.9-1.6a3,3,0,0,1,3.3,2.6,3,3,0,0,1-2.7,3.3c-6.6.8-13.4,1.3-20.1,1.7Zm-60.1-1.8h-.3c-6.7-.8-13.5-1.8-20.1-3a2.9,2.9,0,0,1-2.4-3.4,3,3,0,0,1,3.5-2.5c6.5,1.2,13.1,2.1,19.7,2.9a3,3,0,0,1,2.6,3.3A3.1,3.1,0,0,1,405.7,398.8Zm-107.7-2a3,3,0,0,1-2.9-2.2,3.1,3.1,0,0,1,2.2-3.7,144.7,144.7,0,0,0,18.6-6.1,3,3,0,1,1,2.3,5.5,142.2,142.2,0,0,1-19.4,6.4Zm207.7-.6a3.1,3.1,0,0,1-3-2.5,3,3,0,0,1,2.5-3.5c6.5-1.1,13.1-2.4,19.5-3.8a3,3,0,0,1,3.6,2.2,3.1,3.1,0,0,1-2.3,3.6c-6.5,1.5-13.2,2.8-19.8,3.9ZM158.6,395H158c-6.6-1.3-13.2-2.8-19.7-4.4a3.1,3.1,0,0,1-2.2-3.7,3,3,0,0,1,3.7-2.1c6.4,1.6,12.9,3,19.4,4.4a3,3,0,0,1,2.4,3.5A3.1,3.1,0,0,1,158.6,395Zm207.6-3.2h-.7l-8.2-2c-3.9-1-7.7-2.1-11.3-3.3a3,3,0,0,1-2-3.7,3,3,0,0,1,3.8-2l11.1,3.2,8,2a3,3,0,0,1,2.2,3.6A2.9,2.9,0,0,1,366.2,391.8Zm178.6-4.5a3.1,3.1,0,0,1-2.9-2.2,3,3,0,0,1,2-3.7c6.4-1.8,12.8-3.9,19-6.1a3,3,0,0,1,3.8,1.8,3.1,3.1,0,0,1-1.8,3.9c-6.3,2.2-12.8,4.3-19.3,6.2Zm-425.1-2.1h-.9c-6.4-1.9-12.8-4.1-19.1-6.3a3.1,3.1,0,0,1-1.9-3.8,3.1,3.1,0,0,1,3.9-1.9c6.2,2.3,12.5,4.3,18.9,6.3a2.9,2.9,0,0,1,2,3.7A3,3,0,0,1,119.7,385.2Zm215.2-3.7a3,3,0,0,1-1.5-5.5,92.4,92.4,0,0,0,15.3-11.9,3,3,0,0,1,4.1,4.3,96.3,96.3,0,0,1-16.3,12.7A2.9,2.9,0,0,1,334.9,381.5Zm-6.9-1.8-1.2-.2a147.2,147.2,0,0,1-18.2-9.2,3,3,0,1,1,3-5.1,151.9,151.9,0,0,0,17.6,8.7,3.1,3.1,0,0,1,1.6,4A3.1,3.1,0,0,1,328,379.7Zm254.6-5.9a2.9,2.9,0,0,1-2.8-1.8,3,3,0,0,1,1.6-3.9l8.7-3.9c3.1-1.4,6.3-2.9,9.3-4.5a3.1,3.1,0,0,1,4.1,1.4,3.1,3.1,0,0,1-1.4,4l-9.5,4.6-8.9,3.9A2,2,0,0,1,582.6,373.8Zm-500.7-2-1.1-.2c-6.2-2.6-12.5-5.3-18.5-8.1a3.1,3.1,0,0,1-1.5-4,3,3,0,0,1,4-1.5c6,2.8,12.1,5.5,18.3,8a3.1,3.1,0,0,1,1.6,3.9A3,3,0,0,1,81.9,371.8Zm211.9-12.7a3.2,3.2,0,0,1-2-.8A86.3,86.3,0,0,1,277.9,343a3,3,0,0,1,.8-4.2,2.9,2.9,0,0,1,4.1.7,79,79,0,0,0,13,14.3,3.1,3.1,0,0,1,.3,4.2A3.1,3.1,0,0,1,293.8,359.1Zm324.6-3.3a3.1,3.1,0,0,1-2.6-1.4,3,3,0,0,1,1.1-4.1c5.7-3.4,11.4-6.9,16.8-10.6a3,3,0,0,1,3.4,5c-5.6,3.7-11.4,7.3-17.2,10.7A2.6,2.6,0,0,1,618.4,355.8Zm-572.8-1a2.5,2.5,0,0,1-1.4-.4c-5.9-3.1-11.9-6.5-17.6-9.9a3,3,0,0,1,3.1-5.2c5.6,3.4,11.5,6.7,17.3,9.8a3.1,3.1,0,0,1,1.3,4.1A3.2,3.2,0,0,1,45.6,354.8Zm318-.9a3.3,3.3,0,0,1-1.6-.5,3,3,0,0,1-.9-4.1,71.2,71.2,0,0,0,8.5-17.3,3.1,3.1,0,0,1,3.8-1.9,2.9,2.9,0,0,1,1.9,3.8,80.7,80.7,0,0,1-9.1,18.7A3.3,3.3,0,0,1,363.6,353.9Zm288.1-20.4a3,3,0,0,1-2.4-1.2,3,3,0,0,1,.6-4.2c5.2-4,10.4-8.3,15.4-12.6a3,3,0,0,1,3.9,4.5c-5,4.4-10.3,8.8-15.7,12.9A2.8,2.8,0,0,1,651.7,333.5Zm-379.8-7.3a3.1,3.1,0,0,1-2.9-2.3,62,62,0,0,1-2.2-16.6c0-1.4,0-2.8.1-4.2a3,3,0,0,1,3.2-2.8,3,3,0,0,1,2.8,3.2c-.1,1.2-.1,2.5-.1,3.8a59.6,59.6,0,0,0,2,15.1,2.8,2.8,0,0,1-2.1,3.6Zm103.8-9.9a3.1,3.1,0,0,1-3-3,49.2,49.2,0,0,0-1.7-12.7,42.3,42.3,0,0,0-1.9-5.7,2.9,2.9,0,0,1,1.5-3.9,3,3,0,0,1,4,1.5,45.3,45.3,0,0,1,2.2,6.5,56.5,56.5,0,0,1,1.9,14.2,3.1,3.1,0,0,1-3,3.1Zm306.2-9.2a3,3,0,0,1-2.1-.9,2.9,2.9,0,0,1,0-4.2c4.7-4.7,9.3-9.6,13.6-14.5a3,3,0,0,1,4.3-.3,3.1,3.1,0,0,1,.2,4.3c-4.4,5-9.1,9.9-13.9,14.7A2.7,2.7,0,0,1,681.9,307.1ZM275,287a3.5,3.5,0,0,1-1.4-.3,3,3,0,0,1-1.3-4,46.8,46.8,0,0,1,13.2-16.6,3,3,0,0,1,4.2.5,2.9,2.9,0,0,1-.5,4.2,42.1,42.1,0,0,0-11.5,14.5A3.1,3.1,0,0,1,275,287Zm85.5-6.7a3,3,0,0,1-2.1-.8,62,62,0,0,0-15.5-11.2,3,3,0,1,1,2.7-5.3,65.1,65.1,0,0,1,17,12.2,2.9,2.9,0,0,1,0,4.2A3,3,0,0,1,360.5,280.3ZM708.4,277a3.2,3.2,0,0,1-1.8-.6,2.9,2.9,0,0,1-.5-4.2c4-5.3,7.9-10.7,11.5-16.2a2.9,2.9,0,0,1,4.2-.8,3,3,0,0,1,.8,4.1c-3.7,5.6-7.7,11.1-11.8,16.5A3,3,0,0,1,708.4,277ZM305.3,262.9a3.1,3.1,0,0,1-2.9-2.3,3,3,0,0,1,2.3-3.6,56.7,56.7,0,0,1,21-.6,3,3,0,0,1,2.5,3.5,3,3,0,0,1-3.4,2.5,49.3,49.3,0,0,0-18.8.4Zm425.3-19.3a4.2,4.2,0,0,1-1.5-.4,3.1,3.1,0,0,1-1.1-4.1c3.3-5.8,6.3-11.7,9.1-17.6a3.1,3.1,0,0,1,4-1.5,3,3,0,0,1,1.5,4c-2.9,6.1-6,12.1-9.4,18A2.9,2.9,0,0,1,730.6,243.6Zm17.1-36.3-1-.2a3,3,0,0,1-1.8-3.9c2.4-6.2,4.5-12.5,6.3-18.7a3,3,0,0,1,3.7-2.1,3.1,3.1,0,0,1,2.1,3.7c-1.9,6.4-4,12.9-6.5,19.3A2.9,2.9,0,0,1,747.7,207.3Zm11-38.5h-.5a3,3,0,0,1-2.4-3.5,193.4,193.4,0,0,0,2.6-19.5,3,3,0,1,1,6,.4c-.6,6.6-1.5,13.4-2.7,20.2A3.1,3.1,0,0,1,758.7,168.8Zm3.1-40a2.9,2.9,0,0,1-3-2.8,154.7,154.7,0,0,0-2.1-19.6,2.9,2.9,0,0,1,2.4-3.4,3,3,0,0,1,3.5,2.4,168.1,168.1,0,0,1,2.2,20.3,3,3,0,0,1-2.9,3.1Zm-7.1-39.3a3.1,3.1,0,0,1-2.9-2.1c-1-3.2-2.3-6.4-3.6-9.6s-2.6-5.6-4-8.3a3,3,0,0,1,5.3-2.9c1.5,2.9,2.9,5.9,4.2,8.9s2.7,6.6,3.8,10a2.9,2.9,0,0,1-1.9,3.8ZM555.4,64.1h-.9a3,3,0,0,1-1.9-3.8,77.3,77.3,0,0,1,9.2-18.7,3,3,0,0,1,4.2-.8,3.1,3.1,0,0,1,.8,4.2A66.6,66.6,0,0,0,558.3,62,3,3,0,0,1,555.4,64.1ZM736,54.2a3,3,0,0,1-2.4-1.2,138.3,138.3,0,0,0-13.1-14.5,3,3,0,1,1,4.1-4.3,123,123,0,0,1,13.7,15.2,2.9,2.9,0,0,1-.5,4.2A3.2,3.2,0,0,1,736,54.2ZM577.4,31.1a3.2,3.2,0,0,1-2.2-1,3,3,0,0,1,.2-4.3,105.6,105.6,0,0,1,16.5-12.3,3,3,0,1,1,3.1,5.2,89,89,0,0,0-15.6,11.6A3,3,0,0,1,577.4,31.1ZM707,26.7a3.4,3.4,0,0,1-1.7-.5,110.6,110.6,0,0,0-16.9-9.8,3,3,0,0,1-1.5-4,2.9,2.9,0,0,1,4-1.4,131.7,131.7,0,0,1,17.8,10.2,3,3,0,0,1,.8,4.2A3.3,3.3,0,0,1,707,26.7Zm-95.4-16a3,3,0,0,1-2.8-2.1,3.1,3.1,0,0,1,1.9-3.8A95.7,95.7,0,0,1,630.8.2a2.9,2.9,0,0,1,3.3,2.6,3,3,0,0,1-2.6,3.4,90.5,90.5,0,0,0-18.9,4.3Zm59.3-1.1h-.8A106.2,106.2,0,0,0,650.9,6a3.1,3.1,0,0,1-2.7-3.3A3.1,3.1,0,0,1,651.5,0a119.3,119.3,0,0,1,20.2,3.7,3.1,3.1,0,0,1,2.1,3.7A3,3,0,0,1,670.9,9.6Z"/><path class="cls-2" d="M553.7,93.9a3.1,3.1,0,0,1-2.6-1.4,44.3,44.3,0,0,0-5.7-7.4,3,3,0,0,1,4.1-4.4,3,3,0,0,1,6,.2,58.8,58.8,0,0,0,1.1,9.4,2.9,2.9,0,0,1-1.8,3.4A2.2,2.2,0,0,1,553.7,93.9Z"/><path class="cls-2" d="M856.9,392h0l-19.8-.3a3,3,0,0,1-2.9-3.1,2.9,2.9,0,0,1,3.1-2.9c6.5.2,13.1.3,19.6.3a3,3,0,0,1,3,3A2.9,2.9,0,0,1,856.9,392Zm19.8-.2a3,3,0,0,1-3-2.9,2.9,2.9,0,0,1,2.9-3.1c6.5-.2,13.1-.4,19.6-.8a3,3,0,0,1,.4,6c-6.6.4-13.3.6-19.8.8Zm-59.2-1h-.2l-19.8-1.5a3,3,0,0,1-2.7-3.2,3,3,0,0,1,3.3-2.8c6.4.6,13,1.1,19.6,1.5a3,3,0,0,1,2.8,3.1A3.1,3.1,0,0,1,817.5,390.8Zm98.6-1.1a3,3,0,0,1-.3-6l19.6-1.9a3,3,0,0,1,3.3,2.6,3,3,0,0,1-2.6,3.3c-6.6.7-13.2,1.4-19.8,1.9Zm-137.9-2.4h-.4c-6.5-.8-13.1-1.6-19.6-2.6a3,3,0,0,1-2.6-3.4,3,3,0,0,1,3.4-2.5c6.5.9,13,1.8,19.5,2.5a3,3,0,0,1,2.6,3.4A2.8,2.8,0,0,1,778.2,387.3Zm177.1-2.1a2.8,2.8,0,0,1-2.9-2.5,2.9,2.9,0,0,1,2.5-3.4c6.5-.9,13-2,19.4-3.1a3,3,0,0,1,3.5,2.5,2.9,2.9,0,0,1-2.5,3.4c-6.4,1.2-13,2.2-19.6,3.1Zm-216.2-3.6h-.5c-6.5-1.1-13.1-2.4-19.5-3.7a2.9,2.9,0,0,1-2.3-3.5,3,3,0,0,1,3.5-2.4c6.4,1.3,12.9,2.6,19.3,3.7a3,3,0,0,1,2.4,3.5A2.9,2.9,0,0,1,739.1,381.6Zm255.1-3.1a2.9,2.9,0,0,1-2.9-2.4,3,3,0,0,1,2.3-3.5c6.4-1.3,12.9-2.7,19.2-4.2a3,3,0,1,1,1.4,5.8c-6.4,1.5-12.9,3-19.4,4.3Zm-293.8-4.8h-.7c-6.4-1.5-12.8-3.2-19.2-4.8a3,3,0,0,1-2.1-3.7,2.8,2.8,0,0,1,3.6-2.1l19.1,4.7a3,3,0,0,1,2.2,3.6A2.9,2.9,0,0,1,700.4,373.7Zm332.2-4.2a2.9,2.9,0,0,1-2.8-2.2,2.9,2.9,0,0,1,2.1-3.7q9.4-2.6,18.9-5.4a2.9,2.9,0,0,1,3.7,2,2.9,2.9,0,0,1-2,3.7c-6.3,1.9-12.7,3.8-19.1,5.5Zm-370.3-5.9h-.9l-18.9-5.9a3,3,0,0,1,1.9-5.7c6.2,2,12.5,4,18.7,5.8a3,3,0,0,1,2,3.8A2.8,2.8,0,0,1,662.3,363.6Zm-37.5-12.3-1-.2c-6.2-2.3-12.5-4.6-18.6-7.1a3,3,0,1,1,2.3-5.5c6,2.4,12.2,4.7,18.3,6.9a3,3,0,0,1-1,5.9Zm-36.7-14.7a2.5,2.5,0,0,1-1.2-.2c-6-2.6-12.1-5.4-18-8.2a3,3,0,0,1-1.5-4,3,3,0,0,1,4-1.4c5.9,2.8,11.9,5.5,17.9,8.1a3.1,3.1,0,0,1,1.6,3.9A2.9,2.9,0,0,1,588.1,336.6Zm-35.7-16.8a2.2,2.2,0,0,1-1.3-.4c-5.9-3-11.8-6.1-17.5-9.3a3,3,0,0,1-1.2-4.1,3.1,3.1,0,0,1,4.1-1.2c5.7,3.2,11.5,6.3,17.3,9.3a2.9,2.9,0,0,1,1.3,4A2.9,2.9,0,0,1,552.4,319.8ZM518,300.6a2.9,2.9,0,0,1-1.6-.4l-6.9-4.2-9.9-6.4a2.9,2.9,0,0,1-.9-4.1,3.1,3.1,0,0,1,4.2-.9c3.1,2.1,6.4,4.2,9.8,6.3l6.8,4.1a3,3,0,0,1,1,4.1A2.7,2.7,0,0,1,518,300.6ZM484.9,279a2.7,2.7,0,0,1-1.7-.6c-5.6-4-10.9-8.1-15.8-12.1a3,3,0,0,1-.5-4.2,2.9,2.9,0,0,1,4.2-.4c4.9,3.9,10.1,7.9,15.6,11.9a3,3,0,0,1,.7,4.1A2.9,2.9,0,0,1,484.9,279Zm-30.5-25a2.7,2.7,0,0,1-2-.9c-5-4.7-9.7-9.5-13.9-14.3a3,3,0,1,1,4.5-4c4.1,4.7,8.6,9.4,13.5,14a3,3,0,0,1,.1,4.2A2.8,2.8,0,0,1,454.4,254Zm-25.9-29.7a3.1,3.1,0,0,1-2.4-1.3,155.3,155.3,0,0,1-10.5-17.2,3,3,0,0,1,1.3-4,2.9,2.9,0,0,1,4,1.2A144.3,144.3,0,0,0,431,219.6a2.9,2.9,0,0,1-.8,4.1A2.7,2.7,0,0,1,428.5,224.3Zm-17.9-35a3,3,0,0,1-2.8-2.1,112.6,112.6,0,0,1-4.6-19.7,3,3,0,0,1,2.5-3.4,3,3,0,0,1,3.4,2.5,110.4,110.4,0,0,0,4.4,18.7,3.1,3.1,0,0,1-1.9,3.8ZM405,150.4h-.1a3,3,0,0,1-2.9-3.1,101.4,101.4,0,0,1,2.6-20.1,3,3,0,1,1,5.8,1.3,98.8,98.8,0,0,0-2.4,19A3.1,3.1,0,0,1,405,150.4Zm8.9-38.2a3.1,3.1,0,0,1-1.3-.3,3,3,0,0,1-1.4-4A83.6,83.6,0,0,1,422,90.6a3,3,0,0,1,4.2-.5,2.9,2.9,0,0,1,.4,4.2,89.3,89.3,0,0,0-10,16.2A2.9,2.9,0,0,1,413.9,112.2Zm24.4-30.5a3.3,3.3,0,0,1-2.4-1.2,3,3,0,0,1,.6-4.2,81.3,81.3,0,0,1,17.8-10.1,2.9,2.9,0,0,1,3.9,1.6,2.9,2.9,0,0,1-1.6,3.9A80.1,80.1,0,0,0,440.1,81,2.4,2.4,0,0,1,438.3,81.7ZM532,74.1a2.3,2.3,0,0,1-1.4-.4,77,77,0,0,0-17.8-6.6,3,3,0,0,1,1.4-5.8,74.7,74.7,0,0,1,19.2,7.2,2.9,2.9,0,0,1,1.2,4A3,3,0,0,1,532,74.1Zm-57.7-7.7a3,3,0,0,1-2.9-2.5,3,3,0,0,1,2.4-3.5A98.3,98.3,0,0,1,494,58.8a3,3,0,0,1,3,3,3.1,3.1,0,0,1-3,3h-.1a93.7,93.7,0,0,0-19,1.5Z"/><path class="cls-2" d="M1070.5,358a3,3,0,0,1-.9-5.8l9.4-3.3a3.1,3.1,0,0,1,3.8,1.8,3,3,0,0,1-1.8,3.9l-9.5,3.3Z"/></g></g></svg>